<svg xmlns="http://www.w3.org/2000/svg" width="16" height="16" viewBox="0 0 16 16">
  <path fill="#B9BBBE" fill-rule="evenodd" d="M57.8721093,3.75 L55.9736718,3.75 C55.2471057,3.75 54.6318775,4.00780992 54.1279687,4.5234375 C53.6240599,5.03906508 53.3721093,5.66015262 53.3721093,6.38671875 L53.3721093,8.25 L51.8603906,8.25 L51.8603906,10.5 L53.3721093,10.5 L53.3721093,15.7382812 L55.6221093,15.7382812 L55.6221093,10.5 L57.8721093,10.5 L57.8721093,8.25 L55.6221093,8.25 L55.6221093,6.73828125 C55.6221093,6.55078031 55.6924211,6.38086014 55.8330468,6.22851562 C55.9736725,6.07617111 56.149452,6 56.3603906,6 L57.8721093,6 L57.8721093,3.75 Z M47.1103906,0.76171875 L58.1221093,0.76171875 C59.2266788,0.76171875 60.1221093,1.65714925 60.1221093,2.76171875 L60.1221093,13.7382812 C60.1221093,14.8428507 59.2266788,15.7382812 58.1221093,15.7382812 L47.1103906,15.7382812 C46.0058211,15.7382812 45.1103906,14.8428507 45.1103906,13.7382812 L45.1103906,2.76171875 C45.1103906,1.65714925 46.0058211,0.76171875 47.1103906,0.76171875 Z" transform="translate(-45)"/>
</svg>
