<svg xmlns="http://www.w3.org/2000/svg" width="17" height="11" viewBox="0 0 17 11">
  <path fill="#B9BBBE" fill-rule="evenodd" d="M95.4577122,7.49445471 L100.552239,7.49445471 C100.737978,8.48645663 100.698178,9.4516332 100.432836,10.3900134 C100.167495,11.3015827 99.7031547,12.0656809 99.0398015,12.6823307 C98.4295166,13.2453588 97.6865722,13.6341105 96.810946,13.8485974 C95.8557174,14.0630843 94.9270369,14.0496791 94.0248765,13.8083813 C93.3084551,13.6207053 92.6583787,13.2855745 92.0746279,12.802979 C91.4378088,12.2935726 90.9469348,11.6903372 90.6019912,10.9932548 C90.0182404,9.86719856 89.859038,8.67413307 90.1243793,7.41402252 C90.2039817,6.93142699 90.363184,6.47564917 90.6019912,6.04667536 C91.2388102,4.70613223 92.2603588,3.79457657 93.6666676,3.31198104 C94.8872375,2.88300724 96.107789,2.89641247 97.3283589,3.35219714 C97.9651779,3.5934949 98.54892,3.95543612 99.0796025,4.43803165 C99.0265343,4.51846423 98.9336662,4.61900346 98.8009956,4.73965234 C98.668325,4.86030122 98.5887238,4.94743522 98.5621896,5.00105695 C98.4560531,5.08148953 98.2902173,5.23564968 98.0646772,5.46354201 C97.8391372,5.69143435 97.6733013,5.87240496 97.5671648,6.00645927 C97.2222212,5.65791805 96.8242152,5.41662391 96.3731351,5.2825696 C95.8424525,5.12170442 95.3117779,5.10829919 94.7810954,5.2423535 C94.1442763,5.37640782 93.6003349,5.67132288 93.1492547,6.12710755 C92.804311,6.50245963 92.5389737,6.94483222 92.3532348,7.45423861 C92.1144277,8.15132104 92.1144277,8.86179825 92.3532348,9.58569154 C92.592042,10.282774 93.0165817,10.8457936 93.6268666,11.2747674 C93.9983444,11.5428761 94.3963503,11.7171441 94.8208964,11.7975767 C95.2189083,11.8780092 95.6567148,11.8780092 96.1343291,11.7975767 C96.5854093,11.7171441 96.9834152,11.5562813 97.3283589,11.3149835 C97.9386438,10.9128206 98.2968492,10.3498009 98.4029857,9.62590763 L95.4577122,9.62590763 L95.4577122,7.49445471 Z M107,7.61510299 L107,8.98245015 L105.129353,8.98245015 L105.129353,10.8323904 L103.77612,10.8323904 L103.77612,8.98245015 L101.905473,8.98245015 L101.905473,7.61510299 L103.77612,7.61510299 L103.77612,5.72494662 L105.129353,5.72494662 L105.129353,7.61510299 L107,7.61510299 Z" transform="translate(-90 -3)"/>
</svg>
