<svg xmlns="http://www.w3.org/2000/svg" width="16" height="16" viewBox="0 0 16 16">
  <path fill="#B9BBBE" d="M142,1 C139.827333,1 139.555,1.00933333 138.701667,1.048 C137.85,1.087 137.268333,1.22233333 136.759667,1.42 C136.233667,1.62433333 135.787333,1.898 135.343,2.34266667 C134.898,2.78733333 134.624333,3.23366667 134.42,3.75966667 C134.222333,4.26866667 134.086667,4.85 134.048,5.70166667 C134.009333,6.555 134,6.82733333 134,9 C134,11.1726667 134.009333,11.445 134.048,12.2983333 C134.087,13.15 134.222333,13.7316667 134.42,14.2403333 C134.624333,14.7663333 134.898,15.2126667 135.342667,15.657 C135.787333,16.102 136.233667,16.3756667 136.759667,16.5803333 C137.268667,16.7776667 137.85,16.913 138.701667,16.952 C139.555,16.9906667 139.827333,17 142,17 C144.172667,17 144.445,16.9906667 145.298333,16.952 C146.15,16.913 146.731667,16.7776667 147.240333,16.58 C147.766333,16.3756667 148.212667,16.102 148.657,15.6573333 C149.102,15.2126667 149.375667,14.7663333 149.580333,14.2403333 C149.777667,13.7313333 149.913,13.15 149.952,12.2983333 C149.990667,11.445 150,11.1726667 150,9 C150,6.82733333 149.990667,6.555 149.952,5.70166667 C149.913,4.85 149.777667,4.26833333 149.58,3.75966667 C149.375667,3.23366667 149.102,2.78733333 148.657333,2.343 C148.212667,1.898 147.766333,1.62433333 147.240333,1.42 C146.731333,1.22233333 146.15,1.08666667 145.298333,1.048 C144.445,1.00933333 144.172667,1 142,1 Z M142,2.44133333 C144.136,2.44133333 144.389,2.44966667 145.232667,2.488 C146.012667,2.52366667 146.436,2.654 146.718333,2.76366667 C147.091667,2.90866667 147.358333,3.082 147.638333,3.362 C147.918,3.642 148.091333,3.90866667 148.236333,4.282 C148.346333,4.56366667 148.476333,4.98733333 148.512,5.76733333 C148.550333,6.61066667 148.558667,6.864 148.558667,9 C148.558667,11.136 148.550333,11.389 148.512,12.2326667 C148.476333,13.0126667 148.346,13.436 148.236333,13.7183333 C148.091333,14.0916667 147.918,14.3583333 147.638,14.6383333 C147.358,14.918 147.091333,15.0913333 146.718,15.2363333 C146.436333,15.3463333 146.012667,15.4763333 145.232667,15.512 C144.389333,15.5503333 144.136,15.5586667 142,15.5586667 C139.863667,15.5586667 139.610667,15.5503333 138.767333,15.512 C137.987333,15.4763333 137.564,15.346 137.281667,15.2363333 C136.908333,15.0913333 136.641667,14.918 136.361667,14.638 C136.082,14.358 135.908667,14.0913333 135.763667,13.718 C135.653667,13.4363333 135.523667,13.0126667 135.488,12.2326667 C135.449667,11.3893333 135.441333,11.136 135.441333,9 C135.441333,6.864 135.449667,6.611 135.488,5.76733333 C135.523667,4.98733333 135.654,4.564 135.763667,4.28166667 C135.908667,3.90833333 136.082,3.64166667 136.362,3.36166667 C136.642,3.082 136.908667,2.90866667 137.282,2.76366667 C137.563667,2.65366667 137.987333,2.52366667 138.767333,2.488 C139.610667,2.44966667 139.864,2.44133333 142,2.44133333 Z M142,4.892 C139.731,4.892 137.892,6.731 137.892,9 C137.892,11.269 139.731,13.108 142,13.108 C144.269,13.108 146.108,11.269 146.108,9 C146.108,6.731 144.269,4.892 142,4.892 Z M142,11.6666667 C140.527241,11.6666667 139.333333,10.4727593 139.333333,9 C139.333333,7.52724067 140.527241,6.33333333 142,6.33333333 C143.472759,6.33333333 144.666667,7.52724067 144.666667,9 C144.666667,10.4727593 143.472759,11.6666667 142,11.6666667 Z M147.230333,4.72966667 C147.230333,5.25986003 146.800527,5.68966667 146.270333,5.68966667 C145.74014,5.68966667 145.310333,5.25986003 145.310333,4.72966667 C145.310333,4.19947331 145.74014,3.76966667 146.270333,3.76966667 C146.800527,3.76966667 147.230333,4.19947331 147.230333,4.72966667 Z" transform="translate(-134 -1)"/>
</svg>
