<svg xmlns="http://www.w3.org/2000/svg" xmlns:xlink="http://www.w3.org/1999/xlink" width="137" height="141" viewBox="0 0 137 141">
  <defs>
    <linearGradient id="logo-c" x1="50%" x2="0%" y1="37.873%" y2="37.873%">
      <stop offset="0%" stop-color="#CEC9BE" stop-opacity=".181"/>
      <stop offset="100%" stop-color="#595957"/>
    </linearGradient>
    <path id="logo-b" d="M25.4592023,0.124335677 L0.356383772,7.32903758 L0.356383772,17.6540593 C0.356383772,34.6328685 9.57619169,50.1434897 24.3639272,58.2200524 L25.4593544,58.8166854 L26.5547816,58.2200524 C41.3426692,50.1434897 50.562325,34.6330214 50.562325,17.6540593 L50.562325,7.32903758 L25.4592023,0.124335677 Z"/>
    <filter id="logo-a" width="113.9%" height="111.9%" x="-7%" y="-4.3%" filterUnits="objectBoundingBox">
      <feOffset dy="1" in="SourceAlpha" result="shadowOffsetOuter1"/>
      <feGaussianBlur in="shadowOffsetOuter1" result="shadowBlurOuter1" stdDeviation="1"/>
      <feColorMatrix in="shadowBlurOuter1" values="0 0 0 0 0   0 0 0 0 0   0 0 0 0 0  0 0 0 0.5 0"/>
    </filter>
    <linearGradient id="logo-d" x1="0%" y1="41.657%" y2="41.657%">
      <stop offset="0%" stop-color="#BFB7AF"/>
      <stop offset="100%" stop-color="#D8D6D4"/>
    </linearGradient>
    <linearGradient id="logo-f" x1="100%" x2="0%" y1="43.322%" y2="43.322%">
      <stop offset="0%" stop-color="#FFF" stop-opacity=".5"/>
      <stop offset="100%" stop-opacity=".5"/>
    </linearGradient>
    <path id="logo-e" d="M50.5620209,7.32903758 L50.5620209,17.6540593 C50.5620209,34.6328685 41.3422129,50.1434897 26.5544775,58.2200524 L25.4592023,58.8165325 L25.4592023,0.124335677 L50.5620209,7.32903758 Z"/>
    <linearGradient id="logo-i" x1="100%" x2="0%" y1="0%" y2="100%">
      <stop offset="0%" stop-color="#DADADA"/>
      <stop offset="100%" stop-color="#B2B2B2"/>
    </linearGradient>
    <path id="logo-h" d="M57.215564,28.3536145 C57.215564,25.9410808 58.0910671,23.924181 59.8420996,22.3028546 C61.9173974,20.3572629 64.9330193,19.3844817 68.8890558,19.3844817 C71.2237658,19.3844817 73.4546775,20.0654285 75.5818577,21.4273427 C78.0462739,23.0227279 79.2849487,25.0396277 79.2979193,27.4781026 C79.2979193,30.3446077 78.1240966,32.6274011 75.7764159,34.3265512 C74.1291483,35.5198474 72.2484379,36.2656464 70.1342282,36.5639704 C71.9890256,38.2631205 73.3963159,40.5653695 74.3561411,43.4707864 C75.3159663,46.3762033 75.8607238,47.9650794 75.99043,48.2374622 C76.6000487,49.7031413 77.2874808,50.4359698 78.0527468,50.4359698 C78.6883068,50.4359698 79.006082,50.1441355 79.006082,49.560458 C79.006082,49.1843102 78.9542003,48.8470794 78.8504354,48.5487553 L79.220096,48.3931088 C79.5443613,48.8470802 79.7000063,49.3658968 79.6870357,49.9495744 C79.6870357,51.6487244 79.0255444,52.4982867 77.7025421,52.4982867 C76.4833046,52.4982867 75.374334,51.7687008 74.3755969,50.309507 C73.3768599,48.8503132 72.572694,47.0441827 71.9630753,44.8910612 C70.7957203,40.8572011 69.6413532,38.1334136 68.4999394,36.719617 C68.2664684,36.7455582 67.9000541,36.7585286 67.4006856,36.7585286 C66.901317,36.7585286 66.5089619,36.7196174 66.2236085,36.6417937 C65.8474608,38.4187674 65.2378512,40.0789808 64.3947614,41.6224835 C63.5516717,43.1659863 62.689139,44.2944125 61.8071374,45.0077962 C62.3129913,45.2153259 63.0069086,45.3223319 63.8889101,45.3288172 C64.7709117,45.3353025 65.5750775,45.085622 66.3014318,44.5797681 L66.5349016,44.813238 C65.5231939,46.0324754 64.3039747,46.642085 62.8772075,46.642085 C62.2416475,46.642085 61.4439669,46.4604992 60.4841417,46.0973221 C58.9406389,47.2646771 57.3452777,47.8483458 55.69801,47.8483458 C54.9586852,47.8483458 54.2582827,47.6473044 53.5967815,47.2452154 C52.9352803,46.8431265 52.6012921,46.2789133 52.5948068,45.5525591 C52.5883215,44.8262049 52.9125819,44.2555065 53.5675978,43.840447 C54.2226137,43.4253874 55.0202943,43.2178607 55.9606636,43.2178607 C56.9010329,43.2178607 58.4607255,43.6718253 60.6397882,44.5797681 C62.3389383,42.348823 63.4154829,39.5147869 63.8694543,36.0775749 C62.9355703,35.7014272 62.4686353,35.1534271 62.4686353,34.4335582 C62.4686353,33.7136892 63.1106709,33.347275 64.3947614,33.3343044 C64.7190267,31.1033592 65.4161866,29.1124002 66.486262,27.3613677 C67.5563375,25.6103352 68.9149886,24.5208202 70.5622563,24.09279 L70.7957261,24.4040831 C69.498665,25.2212316 68.5453393,26.5506994 67.9357206,28.3925262 C67.5336317,29.5598812 67.1639748,31.4081656 66.8267389,33.9374348 C67.5401225,34.2357588 68.3183475,34.7934867 69.1614372,35.6106353 C71.0681171,35.3771643 72.7413009,34.5794836 74.1810387,33.2175694 C75.6207766,31.8556553 76.3406347,30.0462821 76.3406347,27.7893958 C76.3406347,25.5325094 75.4845872,23.7620475 73.7724665,22.477957 C72.0603458,21.1938665 70.0693869,20.5518308 67.7995299,20.5518308 C65.5296729,20.5518308 63.5451991,21.0706475 61.8460491,22.1082964 C59.9393692,23.2497102 58.9795584,24.7737342 58.9665877,26.680414 C58.9665877,27.4716213 59.2908482,28.1071717 59.9393787,28.5870844 C60.5879093,29.066997 61.2137319,29.3069497 61.8168653,29.3069497 C62.4199988,29.3069497 62.8772059,29.2680384 63.1885006,29.1902148 L63.4025146,29.5598753 C62.0665417,30.104641 61.0418787,31.1747004 60.3284951,32.7700856 C58.8887573,32.0048195 57.8900352,31.0514939 57.3322989,29.9100801 C57.2544752,29.1188728 57.215564,28.6000561 57.215564,28.3536145 Z M55.4256286,44.2490192 C54.310156,44.2490192 53.7524281,44.6640725 53.7524281,45.4941916 C53.7524281,46.3113402 54.433375,46.7199083 55.7952891,46.7199083 C57.1572033,46.7199083 58.3115704,46.3502514 59.258425,45.6109266 C59.1287189,45.5590441 58.5774762,45.3190914 57.6046804,44.8910612 C56.6318845,44.4630311 55.9055412,44.2490192 55.4256286,44.2490192 Z"/>
    <filter id="logo-g" width="140.6%" height="133.2%" x="-20.3%" y="-10.6%" filterUnits="objectBoundingBox">
      <feOffset dy="2" in="SourceAlpha" result="shadowOffsetOuter1"/>
      <feGaussianBlur in="shadowOffsetOuter1" result="shadowBlurOuter1" stdDeviation="1.5"/>
      <feColorMatrix in="shadowBlurOuter1" values="0 0 0 0 0   0 0 0 0 0   0 0 0 0 0  0 0 0 0.5 0"/>
    </filter>
    <linearGradient id="logo-j" x1="0%" x2="91.329%" y1="-11.102%" y2="105.175%">
      <stop offset="0%" stop-color="#434345"/>
      <stop offset="100%" stop-color="#3B3B3D"/>
    </linearGradient>
  </defs>
  <g fill="none" fill-rule="evenodd" transform="translate(-5)">
    <g transform="translate(4.087)">
      <path fill="#CECECE" d="M14.1496641,127.4577 C14.1496641,128.100332 13.6141457,128.421643 12.5430926,128.421643 C11.3496336,128.421643 10.4163014,127.924375 9.74306805,126.929826 C9.45235366,126.501405 9.26492219,126.088291 9.18076803,125.690471 C9.09661386,125.292651 8.97038451,124.282817 8.80207618,122.660936 C8.71027163,121.681688 8.39661081,120.989339 7.8610843,120.583869 C7.3255578,120.178399 6.45342771,119.960366 5.24466788,119.929765 L5.24466788,127.159336 C5.24466788,127.465352 5.48947633,127.656608 5.97910056,127.733112 C6.11680738,127.748413 6.46871952,127.763713 7.03484754,127.779014 C7.23375738,127.779014 7.33321082,127.840216 7.33321082,127.962622 C7.33321082,128.100329 7.20315633,128.169181 6.94304345,128.169181 L6.6676312,128.169181 C6.52992438,128.153881 5.86435142,128.14623 4.67089235,128.14623 C4.44138099,128.14623 4.05121753,128.153881 3.50039026,128.169181 L1.54955346,128.169181 C1.21293679,128.169181 1.04463099,128.100329 1.04463099,127.962622 C1.04463099,127.855517 1.26648864,127.794315 1.7102106,127.779014 C2.4293462,127.763713 2.81950966,127.67191 2.88071269,127.503602 C2.94191572,127.427098 2.97251677,127.128738 2.97251677,126.608512 L2.97251677,113.939548 C2.97251677,113.327518 2.90748953,112.960305 2.77743309,112.837899 C2.64737666,112.715493 2.25338806,112.646641 1.5954555,112.63134 C1.21293656,112.63134 1.02167997,112.562488 1.02167997,112.424781 C1.02167997,112.271773 1.14408419,112.195271 1.38889631,112.195271 C1.43479858,112.195271 1.50365095,112.202921 1.5954555,112.218222 L4.64794133,112.287075 C4.95395647,112.287075 5.38237125,112.279424 5.93319852,112.264124 C6.54522881,112.233522 6.97364359,112.218222 7.21845571,112.218222 C8.64142614,112.218222 9.76984007,112.535708 10.6037313,113.170689 C11.4376226,113.80567 11.854562,114.666325 11.854562,115.752679 C11.854562,116.823732 11.4261472,117.707337 10.5693048,118.403522 C9.7124624,119.099706 8.54962229,119.508995 7.08074958,119.631401 C6.94304277,119.646702 6.86654013,119.669653 6.85123937,119.700255 C6.85123937,119.761458 6.92774201,119.792059 7.08074958,119.792059 C8.6873291,120.067472 9.79279224,120.629767 10.3971722,121.478959 C11.0015521,122.328151 11.4031909,123.862029 11.6021008,126.080638 C11.7245068,127.335301 12.1529216,127.962622 12.887358,127.962622 C13.1168693,127.962622 13.2316233,127.916721 13.2316233,127.824916 C13.2316233,127.809615 13.223973,127.794315 13.2086723,127.779014 C13.1321685,127.610706 13.0939172,127.473001 13.0939172,127.365896 C13.0939172,127.04458 13.262223,126.883924 13.5988396,126.883924 C13.9660578,126.883924 14.1496641,127.075181 14.1496641,127.4577 Z M9.39880273,115.959238 C9.39880273,113.77123 8.45017,112.677242 6.55287609,112.677242 C6.0479511,112.677242 5.70368922,112.746094 5.52008014,112.883801 C5.33647105,113.021508 5.24466788,113.266316 5.24466788,113.618234 L5.24466788,119.447793 C6.71354059,119.463094 7.77310214,119.195335 8.42338433,118.644508 C9.07366651,118.09368 9.39880273,117.198599 9.39880273,115.959238 Z M30.3377845,120.27403 C30.3377845,122.553843 29.6530859,124.481709 28.2836681,126.057687 C26.9142503,127.633665 25.2350174,128.421643 23.2459189,128.421643 C21.1344144,128.421643 19.3595532,127.62219 17.921282,126.023261 C16.4830108,124.424332 15.763886,122.454389 15.763886,120.113373 C15.763886,117.726455 16.4562349,115.771812 17.8409534,114.249387 C19.225672,112.726962 20.9967081,111.96576 23.1541148,111.96576 C25.1891156,111.96576 26.8951244,112.761388 28.2721926,114.352667 C29.6492608,115.943945 30.3377845,117.917713 30.3377845,120.27403 Z M27.7672701,120.388785 C27.7672701,117.588747 27.1935003,115.408421 26.0459435,113.847744 C25.3268079,112.868496 24.3246234,112.378879 23.0393597,112.378879 C21.8152992,112.378879 20.8666664,112.753742 20.1934331,113.503479 C18.9540718,114.880547 18.3344004,117.122074 18.3344004,120.228128 C18.3344004,122.69155 18.7666403,124.604116 19.6311331,125.965883 C20.4956259,127.327651 21.7081927,128.008524 23.26887,128.008524 C24.7224419,128.008524 25.8164296,127.365902 26.550866,126.080638 C27.3618061,124.657668 27.7672701,122.760403 27.7672701,120.388785 Z M45.2288127,112.40183 C45.2288127,112.524236 45.0987582,112.585438 44.8386453,112.585438 C43.9971036,112.600739 43.4768857,112.746094 43.2779758,113.021507 C43.0943668,113.189816 42.4364441,114.490361 41.304188,116.923181 C40.799263,118.009535 40.3249467,118.965818 39.8812247,119.792059 C39.5752096,120.358187 39.3992535,120.744525 39.3533512,120.951085 C39.3074489,121.157645 39.2844981,121.605186 39.2844981,122.29372 L39.2844981,126.631463 C39.2844981,127.136388 39.3495254,127.434748 39.4795818,127.526553 C39.6096383,127.618357 40.064829,127.68721 40.8451676,127.733112 C41.258288,127.763713 41.4648452,127.840216 41.4648452,127.962622 C41.4648452,128.085028 41.3577415,128.14623 41.1435309,128.14623 L40.8681186,128.14623 L37.6549756,128.077377 C36.752231,128.077377 36.0101554,128.092678 35.4287266,128.123279 C35.336922,128.13858 35.2298183,128.14623 35.1074123,128.14623 C34.8932017,128.14623 34.786098,128.077378 34.786098,127.939671 C34.786098,127.801964 34.962054,127.725462 35.3139715,127.710161 C36.1555131,127.679559 36.6527803,127.603057 36.8057878,127.480651 C36.9587954,127.358245 37.0352981,126.991032 37.0352981,126.379002 L37.0352981,121.536336 C36.8822905,121.19972 36.4385752,120.304639 35.7041388,118.851067 L33.4090367,114.306765 C33.1795253,113.863043 32.9041158,113.365775 32.5827999,112.814948 C32.4144916,112.661941 32.0511041,112.585438 31.4926264,112.585438 C30.9341488,112.585438 30.6549141,112.501285 30.6549141,112.332977 C30.6549141,112.210571 30.7773184,112.149369 31.0221305,112.149369 C31.3434464,112.149369 31.9860686,112.164669 32.9500163,112.195271 C33.5008435,112.210571 33.8986573,112.218222 34.1434694,112.218222 L36.8057878,112.195271 C36.9128932,112.17997 37.0352974,112.17232 37.1730042,112.17232 C37.4484178,112.17232 37.5861226,112.248822 37.5861226,112.40183 C37.5861226,112.539537 37.3260136,112.608389 36.8057878,112.608389 C35.8571409,112.608389 35.3828245,112.776695 35.3828245,113.113311 C35.3828245,113.373424 35.8647912,114.42151 36.8287389,116.257601 L38.9172818,120.228128 C39.2998007,119.539594 39.7358658,118.690415 40.22549,117.680565 L41.5796003,114.949393 C42.0845253,113.970145 42.336984,113.327522 42.336984,113.021507 C42.336984,112.822597 42.2069295,112.707844 41.9468166,112.677242 C41.4112901,112.600738 41.0517277,112.570137 40.8681186,112.585438 C40.531502,112.600739 40.3631961,112.524236 40.3631961,112.355928 C40.3631961,112.233522 40.5085512,112.17232 40.7992656,112.17232 L42.1304248,112.195271 L42.8878085,112.17232 C44.4484857,112.126417 45.2288127,112.20292 45.2288127,112.40183 Z M59.5690163,127.985573 C59.5690163,128.12328 59.4542623,128.192132 59.224751,128.192132 C59.0717434,128.192132 58.9340387,128.184482 58.8116326,128.169181 L55.8968529,128.123279 L52.9820732,128.169181 C52.8749679,128.184482 52.7602139,128.192132 52.6378079,128.192132 C52.3317927,128.192132 52.1787874,128.11563 52.1787874,127.962622 C52.1787874,127.794314 52.3853446,127.710161 52.798465,127.710161 C54.1449317,127.69486 54.8181549,127.557155 54.8181549,127.297043 C54.8181549,127.281742 54.8028544,127.22054 54.7722529,127.113434 L54.5886447,126.493757 L54.4738896,126.172443 C54.3361828,125.698119 53.9995711,124.650033 53.4640446,123.028153 L48.5525261,123.028153 C47.6344806,125.476274 47.1754648,126.883922 47.1754648,127.251141 C47.1754648,127.465351 47.267268,127.595406 47.4508771,127.641308 C47.4967793,127.656609 47.8792925,127.68721 48.5984281,127.733112 C49.0421501,127.748413 49.2640077,127.824915 49.2640077,127.962622 C49.2640077,128.11563 49.0651009,128.192132 48.6672812,128.192132 C47.9634464,128.192132 47.1448681,128.161531 46.2115219,128.100328 C45.9820106,128.085028 45.7448524,128.077377 45.5000403,128.077377 C45.2552281,128.077377 45.01807,128.092678 44.7885586,128.123279 C44.6661525,128.13858 44.5666991,128.14623 44.4901953,128.14623 C44.2759847,128.14623 44.168881,128.077378 44.168881,127.939671 C44.168881,127.801964 44.4098643,127.725462 44.8918382,127.710161 C45.3738121,127.69486 45.7218991,127.622183 45.9361097,127.492126 C46.1503203,127.36207 46.3186261,127.113436 46.4410321,126.746218 C48.4148298,121.115539 50.0213853,116.594233 51.2607466,113.182164 C51.2913481,112.998555 51.3525502,112.791998 51.4443548,112.562487 L51.5591099,112.149369 C51.6050121,111.98106 51.6662143,111.896907 51.742718,111.896907 C51.7886203,111.896907 51.8268716,111.942809 51.8574731,112.034613 C52.056383,112.631343 52.5077486,113.878336 53.2115834,115.77563 C53.7624107,117.259803 55.1318079,120.985482 57.3198162,126.952777 C57.4422223,127.289394 57.5990527,127.503601 57.7903121,127.595406 C57.9815716,127.68721 58.3755602,127.740762 58.9722897,127.756063 C59.3701094,127.771364 59.5690163,127.847866 59.5690163,127.985573 Z M53.3263385,122.500279 C53.0815264,121.811745 52.6760624,120.671856 52.1099344,119.080577 L51.0082854,115.936287 C50.3656536,117.61937 49.5929769,119.807346 48.6902322,122.500279 L53.3263385,122.500279 Z M73.5715912,126.3331 C73.5715912,126.730919 73.5486404,127.388842 73.5027381,128.306888 L73.2502769,128.306888 C73.1584723,128.306888 72.9366147,128.291587 72.5846973,128.260985 C72.2327798,128.230384 71.8349661,128.215083 71.3912442,128.215083 L61.8436193,128.14623 C61.5835064,128.14623 61.4534519,128.077378 61.4534519,127.939671 C61.4534519,127.832566 61.6600091,127.763713 62.0731295,127.733112 C62.6545583,127.70251 63.0026453,127.637483 63.117401,127.538028 C63.2321567,127.438573 63.2895336,127.151688 63.2895336,126.677365 L63.2895336,113.778891 C63.2895336,113.212763 63.2321567,112.883802 63.117401,112.791997 C63.0026453,112.700193 62.5933562,112.654291 61.8895213,112.654291 C61.598807,112.654291 61.4534519,112.570138 61.4534519,112.40183 C61.4534519,112.264123 61.5452551,112.195271 61.7288642,112.195271 L61.9354234,112.195271 C62.4403484,112.241173 63.442533,112.264124 64.9420072,112.264124 C65.079714,112.264124 65.3474732,112.252648 65.7452929,112.229697 C66.1431126,112.206746 66.472074,112.195271 66.7321868,112.195271 L66.9846481,112.195271 C67.2600617,112.195271 67.3977665,112.271773 67.3977665,112.424781 C67.3977665,112.516585 67.35569,112.573962 67.2715358,112.596913 C67.1873817,112.619865 66.9234476,112.63899 66.4797256,112.654291 C66.0360036,112.669592 65.7720695,112.742269 65.6879154,112.872326 C65.6037612,113.002382 65.5616847,113.404021 65.5616847,114.077254 L65.5616847,127.618357 C65.9748052,127.633658 66.548575,127.641308 67.2830113,127.641308 C69.0732,127.641308 70.3354935,127.549505 71.0699299,127.365896 C71.8043662,127.182287 72.3016334,126.838025 72.5617462,126.3331 C72.8218591,125.828175 72.9748644,125.147301 73.0207667,124.290459 C73.0360674,124.091549 73.1278706,123.992096 73.2961789,123.992096 C73.4950888,123.992096 73.5868919,124.106849 73.5715912,124.336361 L73.5486402,124.910136 L73.5486402,125.116696 C73.5639409,125.223801 73.5715912,125.330905 73.5715912,125.43801 L73.5715912,126.3331 Z M94.0421694,123.028153 C94.0421694,122.997551 94.0268689,123.204108 93.9962673,123.64783 C93.9350643,124.535274 93.9044633,125.392104 93.9044633,126.218345 C93.9044633,126.310149 93.9197638,126.497581 93.9503653,126.780645 C93.9809668,127.063709 93.9962673,127.404145 93.9962673,127.801965 L93.9962673,128.008524 C93.9962673,128.207434 93.9350652,128.306888 93.8126592,128.306888 C93.6902531,128.306888 93.5831494,128.192134 93.4913449,127.962622 C93.2771343,127.457697 93.0629269,127.128736 92.8487163,126.975728 C91.7470618,127.939676 90.4235661,128.421643 88.8781896,128.421643 C86.6289783,128.421643 84.766139,127.637491 83.2896159,126.069163 C81.8130928,124.500835 81.0748424,122.523242 81.0748424,120.136324 C81.0748424,117.734105 81.7518907,115.771812 83.1060078,114.249387 C84.4601248,112.726962 86.2082101,111.96576 88.3503161,111.96576 C89.1306547,111.96576 89.7541513,112.030788 90.2208244,112.160844 C90.6874974,112.2909 91.2650924,112.554835 91.9536265,112.952654 C92.2902431,113.151564 92.5427018,113.251018 92.7110102,113.251018 C92.848717,113.251018 92.9787715,113.128613 93.1011775,112.883801 C93.3000874,112.45538 93.4607429,112.241173 93.583149,112.241173 C93.705555,112.241173 93.7667571,112.302375 93.7667571,112.424781 C93.7667571,112.485984 93.7514566,112.585437 93.7208551,112.723144 C93.5525468,113.45758 93.4683939,114.834628 93.4683939,116.854328 C93.4683939,117.145042 93.4454431,117.313348 93.3995408,117.35925 C93.3536385,117.405153 93.2924364,117.428103 93.2159326,117.428103 C93.0629251,117.428103 92.9634716,117.282748 92.9175693,116.992034 C92.7186595,115.767973 92.4355997,114.857592 92.0683816,114.260862 C91.3186445,113.036802 90.1405038,112.424781 88.5339243,112.424781 C87.2945629,112.424781 86.3153292,112.837895 85.5961936,113.664136 C84.2956292,115.148309 83.6453568,117.320984 83.6453568,120.182226 C83.6453568,122.737452 84.1808752,124.718871 85.2519282,126.12654 C86.1852744,127.350601 87.4246172,127.962622 88.9699937,127.962622 C89.7656331,127.962622 90.4924081,127.76754 91.1503407,127.377371 C91.8082733,126.987202 92.3131907,126.455508 92.6651081,125.782275 C93.0629278,125.001937 93.3459876,124.152757 93.5142959,123.234712 C93.5754989,122.867494 93.6749524,122.683887 93.8126592,122.683887 C93.9656668,122.683887 94.0421694,122.798641 94.0421694,123.028153 Z M111.20015,127.985573 C111.20015,128.12328 111.085396,128.192132 110.855885,128.192132 C110.702877,128.192132 110.565173,128.184482 110.442766,128.169181 L107.527987,128.123279 L104.613207,128.169181 C104.506102,128.184482 104.391348,128.192132 104.268942,128.192132 C103.962927,128.192132 103.809921,128.11563 103.809921,127.962622 C103.809921,127.794314 104.016478,127.710161 104.429599,127.710161 C105.776066,127.69486 106.449289,127.557155 106.449289,127.297043 C106.449289,127.281742 106.433988,127.22054 106.403387,127.113434 L106.219779,126.493757 L106.105023,126.172443 C105.967317,125.698119 105.630705,124.650033 105.095179,123.028153 L100.18366,123.028153 C99.2656145,125.476274 98.8065987,126.883922 98.8065987,127.251141 C98.8065987,127.465351 98.8984019,127.595406 99.0820109,127.641308 C99.1279132,127.656609 99.5104264,127.68721 100.229562,127.733112 C100.673284,127.748413 100.895142,127.824915 100.895142,127.962622 C100.895142,128.11563 100.696235,128.192132 100.298415,128.192132 C99.5945802,128.192132 98.776002,128.161531 97.8426558,128.100328 C97.6131444,128.085028 97.3759863,128.077377 97.1311741,128.077377 C96.886362,128.077377 96.6492038,128.092678 96.4196925,128.123279 C96.2972864,128.13858 96.197833,128.14623 96.1213292,128.14623 C95.9071186,128.14623 95.8000149,128.077378 95.8000149,127.939671 C95.8000149,127.801964 96.0409982,127.725462 96.5229721,127.710161 C97.0049459,127.69486 97.3530329,127.622183 97.5672435,127.492126 C97.7814541,127.36207 97.9497599,127.113436 98.072166,126.746218 C100.045964,121.115539 101.652519,116.594233 102.89188,113.182164 C102.922482,112.998555 102.983684,112.791998 103.075489,112.562487 L103.190244,112.149369 C103.236146,111.98106 103.297348,111.896907 103.373852,111.896907 C103.419754,111.896907 103.458006,111.942809 103.488607,112.034613 C103.687517,112.631343 104.138882,113.878336 104.842717,115.77563 C105.393545,117.259803 106.762942,120.985482 108.95095,126.952777 C109.073356,127.289394 109.230187,127.503601 109.421446,127.595406 C109.612705,127.68721 110.006694,127.740762 110.603424,127.756063 C111.001243,127.771364 111.20015,127.847866 111.20015,127.985573 Z M104.957472,122.500279 C104.71266,121.811745 104.307196,120.671856 103.741068,119.080577 L102.639419,115.936287 C101.996787,117.61937 101.224111,119.807346 100.321366,122.500279 L104.957472,122.500279 Z M125.586975,127.4577 C125.586975,128.100332 125.051456,128.421643 123.980403,128.421643 C122.786944,128.421643 121.853612,127.924375 121.180379,126.929826 C120.889664,126.501405 120.702233,126.088291 120.618079,125.690471 C120.533925,125.292651 120.407695,124.282817 120.239387,122.660936 C120.147582,121.681688 119.833922,120.989339 119.298395,120.583869 C118.762869,120.178399 117.890738,119.960366 116.681979,119.929765 L116.681979,127.159336 C116.681979,127.465352 116.926787,127.656608 117.416411,127.733112 C117.554118,127.748413 117.90603,127.763713 118.472158,127.779014 C118.671068,127.779014 118.770522,127.840216 118.770522,127.962622 C118.770522,128.100329 118.640467,128.169181 118.380354,128.169181 L118.104942,128.169181 C117.967235,128.153881 117.301662,128.14623 116.108203,128.14623 C115.878692,128.14623 115.488528,128.153881 114.937701,128.169181 L112.986864,128.169181 C112.650248,128.169181 112.481942,128.100329 112.481942,127.962622 C112.481942,127.855517 112.703799,127.794315 113.147521,127.779014 C113.866657,127.763713 114.25682,127.67191 114.318023,127.503602 C114.379226,127.427098 114.409828,127.128738 114.409828,126.608512 L114.409828,113.939548 C114.409828,113.327518 114.3448,112.960305 114.214744,112.837899 C114.084687,112.715493 113.690699,112.646641 113.032766,112.63134 C112.650247,112.63134 112.458991,112.562488 112.458991,112.424781 C112.458991,112.271773 112.581395,112.195271 112.826207,112.195271 C112.872109,112.195271 112.940962,112.202921 113.032766,112.218222 L116.085252,112.287075 C116.391267,112.287075 116.819682,112.279424 117.370509,112.264124 C117.98254,112.233522 118.410954,112.218222 118.655766,112.218222 C120.078737,112.218222 121.207151,112.535708 122.041042,113.170689 C122.874933,113.80567 123.291873,114.666325 123.291873,115.752679 C123.291873,116.823732 122.863458,117.707337 122.006616,118.403522 C121.149773,119.099706 119.986933,119.508995 118.51806,119.631401 C118.380354,119.646702 118.303851,119.669653 118.28855,119.700255 C118.28855,119.761458 118.365053,119.792059 118.51806,119.792059 C120.12464,120.067472 121.230103,120.629767 121.834483,121.478959 C122.438863,122.328151 122.840502,123.862029 123.039412,126.080638 C123.161818,127.335301 123.590232,127.962622 124.324669,127.962622 C124.55418,127.962622 124.668934,127.916721 124.668934,127.824916 C124.668934,127.809615 124.661284,127.794315 124.645983,127.779014 C124.569479,127.610706 124.531228,127.473001 124.531228,127.365896 C124.531228,127.04458 124.699534,126.883924 125.03615,126.883924 C125.403369,126.883924 125.586975,127.075181 125.586975,127.4577 Z M120.836113,115.959238 C120.836113,113.77123 119.887481,112.677242 117.990187,112.677242 C117.485262,112.677242 117.141,112.746094 116.957391,112.883801 C116.773782,113.021508 116.681979,113.266316 116.681979,113.618234 L116.681979,119.447793 C118.150851,119.463094 119.210413,119.195335 119.860695,118.644508 C120.510977,118.09368 120.836113,117.198599 120.836113,115.959238 Z M136.978332,123.670781 C136.978332,124.986646 136.47724,126.10741 135.47504,127.033106 C134.47284,127.958802 133.267924,128.421643 131.860254,128.421643 C131.034013,128.421643 130.047129,128.169184 128.899572,127.664259 C128.593557,127.526552 128.364049,127.4577 128.211042,127.4577 C128.027433,127.4577 127.912679,127.679557 127.866776,128.123279 C127.851476,128.352791 127.752022,128.467545 127.568413,128.467545 C127.415406,128.467545 127.338903,128.375741 127.338903,128.192132 C127.338903,128.069726 127.346553,127.977923 127.361854,127.91672 C127.48426,126.983374 127.545462,126.118894 127.545462,125.323255 C127.545462,125.170247 127.530162,124.741832 127.49956,124.037998 C127.484259,123.946193 127.476609,123.823789 127.476609,123.670781 C127.476609,123.44127 127.568412,123.326516 127.752021,123.326516 C127.905029,123.326516 128.012133,123.510122 128.073336,123.87734 C128.471155,126.600875 129.76405,127.962622 131.952058,127.962622 C132.885404,127.962622 133.608354,127.698688 134.12093,127.170812 C134.633505,126.642936 134.889789,125.897035 134.889789,124.933087 C134.889789,124.076245 134.641155,123.345645 134.143881,122.741265 C133.646606,122.136885 132.793602,121.536339 131.584842,120.93961 C130.13127,120.220474 129.121435,119.5243 128.555307,118.851067 C127.989179,118.177833 127.706119,117.343955 127.706119,116.349405 C127.706119,115.079443 128.115408,114.031356 128.933999,113.205116 C129.752589,112.378875 130.7892,111.96576 132.043862,111.96576 C132.564088,111.96576 133.283213,112.141716 134.201258,112.493634 C134.522574,112.61604 134.759732,112.677242 134.91274,112.677242 C135.081048,112.677242 135.191977,112.646641 135.24553,112.585438 C135.299082,112.524235 135.348809,112.363579 135.394711,112.103466 C135.425313,111.950459 135.509466,111.873956 135.647173,111.873956 C135.80018,111.873956 135.876683,111.965759 135.876683,112.149369 C135.876683,112.271775 135.869033,112.363578 135.853732,112.424781 C135.80783,112.791999 135.784879,113.235714 135.784879,113.75594 C135.784879,114.490376 135.82313,115.071796 135.899634,115.500218 L135.922585,115.867434 C135.937886,116.035742 135.869033,116.119895 135.716026,116.119895 C135.547717,116.119895 135.432963,115.943939 135.37176,115.592022 C135.203452,114.689277 134.805638,113.935726 134.178307,113.331346 C133.550976,112.726966 132.847152,112.424781 132.066813,112.424781 C131.301775,112.424781 130.693579,112.669589 130.242207,113.159213 C129.790835,113.648838 129.565152,114.314411 129.565152,115.155952 C129.565152,116.135201 129.894113,116.923178 130.552046,117.519908 C130.919264,117.856524 131.714891,118.330841 132.938952,118.942871 C134.377223,119.662006 135.410009,120.392607 136.03734,121.134693 C136.664671,121.87678 136.978332,122.722134 136.978332,123.670781 Z"/>
      <path fill="#545454" d="M6.55150279,140.861756 L6.09248236,139.765207 L3.74637796,139.765207 L3.28098226,140.861756 L2.55419991,140.861756 L4.60066598,136.144046 L5.23181906,136.144046 L7.27190984,140.861756 L6.55150279,140.861756 Z M3.98226346,139.204182 L5.85659686,139.204182 L4.91943016,136.979208 L3.98226346,139.204182 Z M19.4055854,140.925508 C18.2070321,140.925508 17.4037463,140.211477 17.4037463,139.127678 L17.4037463,136.144046 L18.0795264,136.144046 L18.0795264,139.102177 C18.0795264,139.854461 18.608675,140.364483 19.4055854,140.364483 C20.1897453,140.364483 20.7188939,139.854461 20.7188939,139.102177 L20.7188939,136.144046 L21.4010492,136.144046 L21.4010492,139.127678 C21.4010492,140.211477 20.6041388,140.925508 19.4055854,140.925508 Z M35.3899324,136.144046 L35.3899324,136.705071 L33.9108665,136.705071 L33.9108665,140.861756 L33.2287112,140.861756 L33.2287112,136.705071 L31.7496454,136.705071 L31.7496454,136.144046 L35.3899324,136.144046 Z M47.7084912,140.925508 C46.2613018,140.925508 45.2922586,139.956465 45.2922586,138.502901 C45.2922586,137.049336 46.2613018,136.080293 47.7084912,136.080293 C49.1493053,136.080293 50.1183484,137.049336 50.1183484,138.502901 C50.1183484,139.956465 49.1493053,140.925508 47.7084912,140.925508 Z M47.7084912,140.364483 C48.7285365,140.364483 49.4170672,139.618575 49.4170672,138.502901 C49.4170672,137.387226 48.7285365,136.641318 47.7084912,136.641318 C46.6820705,136.641318 45.9999151,137.387226 45.9999151,138.502901 C45.9999151,139.618575 46.6820705,140.364483 47.7084912,140.364483 Z M63.6609617,136.144046 L63.6609617,136.705071 L62.1818959,136.705071 L62.1818959,140.861756 L61.4997405,140.861756 L61.4997405,136.705071 L60.0206747,136.705071 L60.0206747,136.144046 L63.6609617,136.144046 Z M77.879355,140.861756 L77.0824446,140.861756 L75.9093924,139.025674 L74.7490907,139.025674 L74.7490907,140.861756 L74.0669354,140.861756 L74.0669354,136.144046 L75.9221429,136.144046 C76.891186,136.144046 77.5350897,136.717821 77.5350897,137.58486 C77.5350897,138.216013 77.1780738,138.694159 76.5915477,138.904543 L77.879355,140.861756 Z M74.7490907,136.705071 L74.7490907,138.464649 L75.8010125,138.464649 C76.419415,138.464649 76.8274332,138.114008 76.8274332,137.58486 C76.8274332,137.055711 76.4321656,136.705071 75.8392642,136.705071 L74.7490907,136.705071 Z M91.7152313,140.861756 L91.2562109,139.765207 L88.9101065,139.765207 L88.4447108,140.861756 L87.7179285,140.861756 L89.7643945,136.144046 L90.3955476,136.144046 L92.4356384,140.861756 L91.7152313,140.861756 Z M89.145992,139.204182 L91.0203254,139.204182 L90.0831587,136.979208 L89.145992,139.204182 Z M104.48006,136.144046 C105.863497,136.144046 106.781537,137.087588 106.781537,138.509276 C106.781537,139.918214 105.863497,140.861756 104.48006,140.861756 L102.758733,140.861756 L102.758733,136.144046 L104.48006,136.144046 Z M104.454559,140.300731 C105.429977,140.300731 106.080256,139.580323 106.080256,138.509276 C106.080256,137.425478 105.429977,136.705071 104.454559,136.705071 L103.440889,136.705071 L103.440889,140.300731 L104.454559,140.300731 Z M118.092801,140.300731 L120.509034,140.300731 L120.509034,140.861756 L117.410646,140.861756 L117.410646,136.144046 L120.458032,136.144046 L120.458032,136.705071 L118.092801,136.705071 L118.092801,138.184136 L120.279524,138.184136 L120.279524,138.745161 L118.092801,138.745161 L118.092801,140.300731 Z M134.995189,140.861756 L134.198279,140.861756 L133.025227,139.025674 L131.864925,139.025674 L131.864925,140.861756 L131.18277,140.861756 L131.18277,136.144046 L133.037977,136.144046 C134.00702,136.144046 134.650924,136.717821 134.650924,137.58486 C134.650924,138.216013 134.293908,138.694159 133.707382,138.904543 L134.995189,140.861756 Z M131.864925,136.705071 L131.864925,138.464649 L132.916847,138.464649 C133.535249,138.464649 133.943267,138.114008 133.943267,137.58486 C133.943267,137.055711 133.548,136.705071 132.955098,136.705071 L131.864925,136.705071 Z"/>
      <g fill-rule="nonzero" transform="translate(33.573)">
        <path fill="#2F2F30" d="M34.3699231,0 L0.138696327,9.82028438 L0.138696327,27.0746272 C0.138696327,49.2390358 13.2378953,69.2010096 33.4571431,77.9197708 L34.3699231,78.2870471 L35.2827031,77.9197708 C55.501951,69.2010096 68.6011499,49.2390358 68.6011499,27.0746272 L68.6011499,9.82028438 L34.3699231,0 Z"/>
        <g transform="translate(8.91 9.42)">
          <path fill="#161617" d="M25.4592023,0.124335677 L0.356383772,7.32903758 L0.356383772,17.6540593 C0.356383772,34.6328685 9.57619169,50.1434897 24.3639272,58.2200524 L25.4593544,58.8166854 L26.5547816,58.2200524 C41.3426692,50.1434897 50.562325,34.6330214 50.562325,17.6540593 L50.562325,7.32903758 L25.4592023,0.124335677 Z"/>
          <g opacity=".188">
            <use fill="#000" filter="url(#logo-a)" xlink:href="#logo-b"/>
            <use fill="url(#logo-c)" fill-rule="evenodd" xlink:href="#logo-b"/>
          </g>
          <g opacity=".03">
            <use fill="url(#logo-d)" fill-rule="evenodd" xlink:href="#logo-e"/>
            <use fill="url(#logo-f)" fill-rule="evenodd" xlink:href="#logo-e"/>
          </g>
        </g>
      </g>
      <use fill="#000" filter="url(#logo-g)" xlink:href="#logo-h"/>
      <use fill="url(#logo-i)" xlink:href="#logo-h"/>
    </g>
    <g fill="url(#logo-j)" fill-rule="nonzero" opacity=".714" transform="translate(.255 1.022)">
      <g transform="rotate(-20 45.73 7.368)">
        <path d="M31.9827026,92.3239092 C37.2147135,95.8268116 43.4759211,100.907832 44.9142558,107.411213 C44.9142558,107.417154 44.8329962,107.508684 46.3984736,106.320551 C45.8760839,101.78142 40.9892809,97.2846465 33.2222826,91.7395676 C6.45261966,73.9175659 1.06452461,34.8123099 17.705549,10.2535916 L17.3767988,9.98626159 C0.375714568,34.5984459 4.80601552,73.9494255 31.9827026,92.3239092 Z"/>
        <path d="M30.229368 78.4940359C28.0220449 80.9000062 26.9262107 84.7673805 29.0552599 87.2802828 31.3095473 85.7832346 31.1999639 81.3633782 30.229368 78.4940359zM24.9067449 83.4663744C27.3645444 82.1653683 27.3645444 77.8880879 26.7226987 74.9296356 24.2648992 77.2286738 23.0594816 80.9000062 24.9067449 83.4663744zM23.5917439 70.9553292C21.1339445 72.8444614 19.4901932 76.4445058 21.1495992 79.171272 23.6230535 78.1197739 24.0300776 73.9316035 23.5917439 70.9553292zM20.8521585 66.6245828C18.0186445 68.406783 16.5157862 71.9711833 17.846442 74.4662636 20.3512058 73.6642735 21.1339445 69.4582811 20.8521585 66.6245828zM18.5665616 61.9552184C15.8895953 63.3275125 13.8701295 66.3928968 15.012928 69.3869931 17.5646561 68.816689 18.4726329 64.8602047 18.5665616 61.9552184zM16.7506078 57.018524C13.4631054 58.3373521 11.9602471 61.5096684 12.7116762 64.0047486 15.1851305 63.6839526 16.5470958 59.8165782 16.7506078 57.018524zM15.4512616 51.8679655C12.4768546 52.7590656 10.2538768 55.6462298 10.9426868 58.3729961 13.4004863 58.2660641 15.0442375 54.5769097 15.4512616 51.8679655zM14.6528682 46.557009C11.9132828 47.109491 9.31459033 49.5511053 9.73726922 52.5630235 12.1637591 52.6521336 14.0892963 49.1411992 14.6528682 46.557009zM14.386737 41.1212985C11.6471516 41.4420945 8.81363758 43.7945987 9.11107828 46.646119 11.5219134 46.931271 13.6822722 43.5985567 14.386737 41.1212985zM14.6685229 35.685588C11.2401275 35.774698 9.00149486 38.4479982 9.07976873 40.6757484 11.41233 41.1569425 13.7605461 38.1093802 14.6685229 35.685588zM9.62768581 34.7231999C11.8663184 35.3826139 14.4180466 32.6202037 15.4982259 30.2855215 12.1481044 30.0716575 9.72161445 32.4954497 9.62768581 34.7231999zM10.7548295 28.8775833C12.9308431 29.7330394 15.6547737 27.1844932 16.875846 25.010209 13.6353079 24.5111929 11.0366154 26.6498331 10.7548295 28.8775833zM12.5238189 23.2101868C14.5589395 24.1903969 17.4237631 22.0339347 18.7857284 19.8952945 15.6547737 19.1289484 12.8995335 21.0180806 12.5238189 23.2101868zM21.2278731 15.0120661C18.0969184 13.996212 15.3103687 15.6714801 14.731142 17.7566543 16.7349531 18.9150844 19.7406696 16.9190202 21.2278731 15.0120661zM24.139661 10.4318116C21.6192424 9.36249154 18.4413234 10.2179476 17.502037 12.6060958 19.4119194 13.924924 22.5428741 12.1961898 24.139661 10.4318116zM25.9086504 89.383279C22.9454055 87.6743004 19.3258888 88.9922567 17.7838229 92.3417312 21.3844208 93.8922454 25.6112097 93.0724333 25.9086504 89.383279zM21.6662068 85.1951086C18.9387169 83.1595755 15.2852597 83.9473099 13.4004863 86.9773087 16.7975721 88.9555509 20.9930515 88.7060429 21.6662068 85.1951086zM17.8777515 80.5257441C15.3813067 78.2286615 11.7487508 78.5246065 9.56506671 81.2029802 12.6020928 83.4307304 16.7506078 83.9653905 17.8777515 80.5257441zM14.5589395 75.4464737C12.3142896 72.862831 8.70248814 72.6766356 6.26190947 75.0187456 10.097329 78.4583919 13.4944149 77.7455119 14.5589395 75.4464737zM11.756735 70.0998732C9.80532704 67.3479634 6.35259916 66.6966747 3.72583613 68.585003 6.65327881 72.0781154 10.3321506 72.3098014 11.756735 70.0998732zM9.48679285 64.2899006C7.8537601 61.3599611 4.56948487 60.2557916 1.80029897 61.7057104 2.06414298 62.1083761 2.34631471 62.4950481 2.64565675 62.8641405 4.6964321 65.0918907 7.6708391 66.5354728 9.48679285 64.2899006zM7.82738684 58.3373521C6.52244354 55.2766592 3.44825103 53.7616029.5948814 54.7729517.803849501 55.2013171 1.03926267 55.6122557 1.29934621 56.0026699 2.83351403 58.3729961 5.77661148 60.2799503 7.82738684 58.3373521zM6.68458836 52.2778715C5.74536849 49.0970789 2.90172327 47.1789502 0 47.7689051 1.87857284 52.5630235 4.9938728 53.4541236 6.68458836 52.2778715zM6.26190947 46.0401709C5.65954551 42.8057607 3.08909747 40.5431594.187857284 40.6935704 1.4245844 45.5946209 4.38333663 46.931271 6.26190947 46.0401709zM6.26190947 39.8024704C5.95531108 36.6275009 3.73240254 34.134071.93928642 33.8320998 1.56547737 37.7172962 3.85107432 40.7113924 6.26190947 39.8024704zM6.98202906 33.6717018C7.02720722 30.5129537 5.11839689 27.751972 2.41083515 27.0597392 2.6143472 31.8716796 5.08780144 34.0637858 6.98202906 33.6717018zM8.2657205 27.6300432C8.64427154 24.5534867 7.09554754 21.5902472 4.53988436 20.5012426 4.28940799 24.1547529 5.77661148 27.7726192 8.2657205 27.6300432zM10.1286386 21.8022487C10.8079269 18.8622903 9.63881004 15.7738564 7.29512453 14.317008 6.4810763 18.8081524 8.25006572 21.6240287 10.1286386 21.8022487zM12.5238189 16.2061402C13.5021302 13.429412 12.7108426 10.2508649 10.5982818 8.47139145 9.62768581 11.8397498 10.2538768 15.6180141 12.5238189 16.2061402zM15.5138807 10.9308277C16.7423102 8.34681196 16.3349436 5.15120211 14.5119752 3.07132495 13.1813194 6.26146325 13.3535219 10.0040836 15.5138807 10.9308277zM25.8929957.415846705C22.2767429 1.20001478 18.6135259 4.42579708 18.8953118 8.00801941 21.9166831 7.72286738 24.7658519 3.605985 25.8929957.415846705z"/>
      </g>
      <g transform="scale(-1 1) rotate(-20 -26.12 414.855)">
        <path d="M31.9827026,92.3239092 C37.2147135,95.8268116 43.4759211,100.907832 44.9142558,107.411213 C44.9142558,107.417154 44.8329962,107.508684 46.3984736,106.320551 C45.8760839,101.78142 40.9892809,97.2846465 33.2222826,91.7395676 C6.45261966,73.9175659 1.06452461,34.8123099 17.705549,10.2535916 L17.3767988,9.98626159 C0.375714568,34.5984459 4.80601552,73.9494255 31.9827026,92.3239092 Z"/>
        <path d="M30.229368 78.4940359C28.0220449 80.9000062 26.9262107 84.7673805 29.0552599 87.2802828 31.3095473 85.7832346 31.1999639 81.3633782 30.229368 78.4940359zM24.9067449 83.4663744C27.3645444 82.1653683 27.3645444 77.8880879 26.7226987 74.9296356 24.2648992 77.2286738 23.0594816 80.9000062 24.9067449 83.4663744zM23.5917439 70.9553292C21.1339445 72.8444614 19.4901932 76.4445058 21.1495992 79.171272 23.6230535 78.1197739 24.0300776 73.9316035 23.5917439 70.9553292zM20.8521585 66.6245828C18.0186445 68.406783 16.5157862 71.9711833 17.846442 74.4662636 20.3512058 73.6642735 21.1339445 69.4582811 20.8521585 66.6245828zM18.5665616 61.9552184C15.8895953 63.3275125 13.8701295 66.3928968 15.012928 69.3869931 17.5646561 68.816689 18.4726329 64.8602047 18.5665616 61.9552184zM16.7506078 57.018524C13.4631054 58.3373521 11.9602471 61.5096684 12.7116762 64.0047486 15.1851305 63.6839526 16.5470958 59.8165782 16.7506078 57.018524zM15.4512616 51.8679655C12.4768546 52.7590656 10.2538768 55.6462298 10.9426868 58.3729961 13.4004863 58.2660641 15.0442375 54.5769097 15.4512616 51.8679655zM14.6528682 46.557009C11.9132828 47.109491 9.31459033 49.5511053 9.73726922 52.5630235 12.1637591 52.6521336 14.0892963 49.1411992 14.6528682 46.557009zM14.386737 41.1212985C11.6471516 41.4420945 8.81363758 43.7945987 9.11107828 46.646119 11.5219134 46.931271 13.6822722 43.5985567 14.386737 41.1212985zM14.6685229 35.685588C11.2401275 35.774698 9.00149486 38.4479982 9.07976873 40.6757484 11.41233 41.1569425 13.7605461 38.1093802 14.6685229 35.685588zM9.62768581 34.7231999C11.8663184 35.3826139 14.4180466 32.6202037 15.4982259 30.2855215 12.1481044 30.0716575 9.72161445 32.4954497 9.62768581 34.7231999zM10.7548295 28.8775833C12.9308431 29.7330394 15.6547737 27.1844932 16.875846 25.010209 13.6353079 24.5111929 11.0366154 26.6498331 10.7548295 28.8775833zM12.5238189 23.2101868C14.5589395 24.1903969 17.4237631 22.0339347 18.7857284 19.8952945 15.6547737 19.1289484 12.8995335 21.0180806 12.5238189 23.2101868zM21.2278731 15.0120661C18.0969184 13.996212 15.3103687 15.6714801 14.731142 17.7566543 16.7349531 18.9150844 19.7406696 16.9190202 21.2278731 15.0120661zM24.139661 10.4318116C21.6192424 9.36249154 18.4413234 10.2179476 17.502037 12.6060958 19.4119194 13.924924 22.5428741 12.1961898 24.139661 10.4318116zM25.9086504 89.383279C22.9454055 87.6743004 19.3258888 88.9922567 17.7838229 92.3417312 21.3844208 93.8922454 25.6112097 93.0724333 25.9086504 89.383279zM21.6662068 85.1951086C18.9387169 83.1595755 15.2852597 83.9473099 13.4004863 86.9773087 16.7975721 88.9555509 20.9930515 88.7060429 21.6662068 85.1951086zM17.8777515 80.5257441C15.3813067 78.2286615 11.7487508 78.5246065 9.56506671 81.2029802 12.6020928 83.4307304 16.7506078 83.9653905 17.8777515 80.5257441zM14.5589395 75.4464737C12.3142896 72.862831 8.70248814 72.6766356 6.26190947 75.0187456 10.097329 78.4583919 13.4944149 77.7455119 14.5589395 75.4464737zM11.756735 70.0998732C9.80532704 67.3479634 6.35259916 66.6966747 3.72583613 68.585003 6.65327881 72.0781154 10.3321506 72.3098014 11.756735 70.0998732zM9.48679285 64.2899006C7.8537601 61.3599611 4.56948487 60.2557916 1.80029897 61.7057104 2.06414298 62.1083761 2.34631471 62.4950481 2.64565675 62.8641405 4.6964321 65.0918907 7.6708391 66.5354728 9.48679285 64.2899006zM7.82738684 58.3373521C6.52244354 55.2766592 3.44825103 53.7616029.5948814 54.7729517.803849501 55.2013171 1.03926267 55.6122557 1.29934621 56.0026699 2.83351403 58.3729961 5.77661148 60.2799503 7.82738684 58.3373521zM6.68458836 52.2778715C5.74536849 49.0970789 2.90172327 47.1789502 0 47.7689051 1.87857284 52.5630235 4.9938728 53.4541236 6.68458836 52.2778715zM6.26190947 46.0401709C5.65954551 42.8057607 3.08909747 40.5431594.187857284 40.6935704 1.4245844 45.5946209 4.38333663 46.931271 6.26190947 46.0401709zM6.26190947 39.8024704C5.95531108 36.6275009 3.73240254 34.134071.93928642 33.8320998 1.56547737 37.7172962 3.85107432 40.7113924 6.26190947 39.8024704zM6.98202906 33.6717018C7.02720722 30.5129537 5.11839689 27.751972 2.41083515 27.0597392 2.6143472 31.8716796 5.08780144 34.0637858 6.98202906 33.6717018zM8.2657205 27.6300432C8.64427154 24.5534867 7.09554754 21.5902472 4.53988436 20.5012426 4.28940799 24.1547529 5.77661148 27.7726192 8.2657205 27.6300432zM10.1286386 21.8022487C10.8079269 18.8622903 9.63881004 15.7738564 7.29512453 14.317008 6.4810763 18.8081524 8.25006572 21.6240287 10.1286386 21.8022487zM12.5238189 16.2061402C13.5021302 13.429412 12.7108426 10.2508649 10.5982818 8.47139145 9.62768581 11.8397498 10.2538768 15.6180141 12.5238189 16.2061402zM15.5138807 10.9308277C16.7423102 8.34681196 16.3349436 5.15120211 14.5119752 3.07132495 13.1813194 6.26146325 13.3535219 10.0040836 15.5138807 10.9308277zM25.8929957.415846705C22.2767429 1.20001478 18.6135259 4.42579708 18.8953118 8.00801941 21.9166831 7.72286738 24.7658519 3.605985 25.8929957.415846705z"/>
      </g>
    </g>
  </g>
</svg>
