<svg xmlns="http://www.w3.org/2000/svg" width="13" height="16" viewBox="0 0 13 16">
  <path fill="#B9BBBE" fill-rule="evenodd" d="M180.602578,6.4921875 C180.602578,5.85937184 180.766639,5.32031473 181.094766,4.875 C181.422892,4.42968527 181.821326,4.20703125 182.290078,4.20703125 C182.688518,4.20703125 182.987343,4.33593621 183.186562,4.59375 C183.385782,4.85156379 183.485391,5.16796687 183.485391,5.54296875 C183.485391,5.77734492 183.450235,6.07031074 183.379922,6.421875 C183.286171,6.75000164 183.168985,7.14843516 183.028359,7.6171875 C182.887734,8.06250223 182.782266,8.42577984 182.711953,8.70703125 C182.594765,9.17578359 182.682655,9.58007643 182.975625,9.91992188 C183.268595,10.2597673 183.649451,10.4296875 184.118203,10.4296875 C184.93852,10.4296875 185.612341,9.9668015 186.139687,9.04101562 C186.667034,8.11522975 186.930703,6.99610031 186.930703,5.68359375 C186.930703,4.67577621 186.608441,3.85547191 185.963906,3.22265625 C185.319372,2.58984059 184.411178,2.2734375 183.239297,2.2734375 C181.92679,2.2734375 180.866254,2.68944896 180.057656,3.52148438 C179.249058,4.35351979 178.844766,5.35546289 178.844766,6.52734375 C178.844766,7.20703465 179.043982,7.79296629 179.442422,8.28515625 C179.583048,8.42578195 179.629922,8.58984281 179.583047,8.77734375 C179.536172,8.89453184 179.477578,9.12890449 179.407266,9.48046875 C179.36039,9.59765684 179.295938,9.67382795 179.213906,9.70898438 C179.131875,9.7441408 179.043985,9.75000012 178.950234,9.7265625 C178.340856,9.46874871 177.88383,9.0351593 177.579141,8.42578125 C177.274452,7.8164032 177.122109,7.11328523 177.122109,6.31640625 C177.122109,5.80077867 177.20414,5.28515883 177.368203,4.76953125 C177.532266,4.25390367 177.790076,3.75586178 178.141641,3.27539062 C178.493205,2.79491947 178.915076,2.36718937 179.407266,1.9921875 C179.899456,1.61718563 180.497106,1.31836049 181.200234,1.09570312 C181.903363,0.873045762 182.665074,0.76171875 183.485391,0.76171875 C184.305707,0.76171875 185.073278,0.902342344 185.788125,1.18359375 C186.502972,1.46484516 187.100623,1.83984141 187.581094,2.30859375 C188.061565,2.77734609 188.436561,3.32226252 188.706094,3.94335938 C188.975626,4.56445623 189.110391,5.20312172 189.110391,5.859375 C189.110391,7.61719629 188.665083,9.07030676 187.774453,10.21875 C186.883824,11.3671932 185.735398,11.9414062 184.329141,11.9414062 C183.860388,11.9414062 183.42094,11.8359386 183.010781,11.625 C182.600623,11.4140614 182.313516,11.1562515 182.149453,10.8515625 C181.797889,12.2109443 181.586953,13.01953 181.516641,13.2773438 C181.32914,13.9804723 180.907269,14.8007766 180.251016,15.7382812 L179.653359,15.7382812 C179.512734,14.5429628 179.536171,13.5585976 179.723672,12.7851562 L180.883828,7.93359375 C180.696327,7.53515426 180.602578,7.05469031 180.602578,6.4921875 Z" transform="translate(-177)"/>
</svg>
