<svg xmlns="http://www.w3.org/2000/svg" width="16" height="13" viewBox="0 0 16 13">
  <path fill="#B9BBBE" fill-rule="evenodd" d="M13.5752343,5.19140625 L13.5752343,5.578125 C13.5752343,6.63281777 13.3818769,7.66991678 12.9951562,8.68945312 C12.6084355,9.70898947 12.0576598,10.6406208 11.3428125,11.484375 C10.6279651,12.3281292 9.70219313,13.0136692 8.5654687,13.5410156 C7.42874427,14.068362 6.18070987,14.3320312 4.82132808,14.3320312 C3.11038202,14.3320312 1.54008522,13.8750046 0.110390575,12.9609375 C0.344766747,12.9843751 0.590858036,12.9960938 0.848671825,12.9960938 C2.27836647,12.9960938 3.55569745,12.5625043 4.68070308,11.6953125 C4.00101218,11.6718749 3.39750259,11.4609395 2.8701562,11.0625 C2.34280981,10.6640605 1.98539151,10.1601593 1.79789058,9.55078125 C1.98539151,9.59765648 2.17288964,9.62109375 2.36039058,9.62109375 C2.64164198,9.62109375 2.91117054,9.57421922 3.16898433,9.48046875 C2.46585581,9.33984305 1.87992417,8.98828406 1.41117183,8.42578125 C0.942419481,7.86327844 0.708046825,7.21875363 0.708046825,6.4921875 L0.708046825,6.45703125 C1.15336155,6.69140742 1.62210686,6.82031238 2.11429683,6.84375 C1.20022975,6.21093434 0.743203075,5.35547414 0.743203075,4.27734375 C0.743203075,3.71484094 0.883826669,3.19922109 1.16507808,2.73046875 C1.93851944,3.66797344 2.87015075,4.41796594 3.95999995,4.98046875 C5.04984915,5.54297156 6.22757175,5.85937465 7.49320308,5.9296875 C7.44632784,5.69531133 7.42289058,5.46093867 7.42289058,5.2265625 C7.42289058,4.38280828 7.72171571,3.66211236 8.31937495,3.06445312 C8.91703419,2.46679389 9.63773011,2.16796875 10.4814843,2.16796875 C11.3721138,2.16796875 12.1221063,2.48437184 12.7314843,3.1171875 C13.4346128,2.9765618 14.0908563,2.73047051 14.7002343,2.37890625 C14.4658582,3.10547238 14.0088315,3.66796676 13.3291406,4.06640625 C13.9619562,3.9960934 14.5596065,3.84375117 15.1221093,3.609375 C14.7002322,4.21875305 14.1846124,4.74609152 13.5752343,5.19140625 Z" transform="translate(0 -2)"/>
</svg>
